<svg width="148" height="156" viewBox="0 0 148 156" fill="none" xmlns="http://www.w3.org/2000/svg">
<path d="M87.2188 63.1719H144.312V87.7812H87.2188V152.469H61.0625V87.7812H3.96875V63.1719H61.0625V3.40625H87.2188V63.1719Z" fill="white"/>
<path d="M87.2188 63.1719H84.2188V66.1719H87.2188V63.1719ZM144.312 63.1719H147.312V60.1719H144.312V63.1719ZM144.312 87.7812V90.7812H147.312V87.7812H144.312ZM87.2188 87.7812V84.7812H84.2188V87.7812H87.2188ZM87.2188 152.469V155.469H90.2188V152.469H87.2188ZM61.0625 152.469H58.0625V155.469H61.0625V152.469ZM61.0625 87.7812H64.0625V84.7812H61.0625V87.7812ZM3.96875 87.7812H0.96875V90.7812H3.96875V87.7812ZM3.96875 63.1719V60.1719H0.96875V63.1719H3.96875ZM61.0625 63.1719V66.1719H64.0625V63.1719H61.0625ZM61.0625 3.40625V0.40625H58.0625V3.40625H61.0625ZM87.2188 3.40625H90.2188V0.40625H87.2188V3.40625ZM87.2188 66.1719H144.312V60.1719H87.2188V66.1719ZM141.312 63.1719V87.7812H147.312V63.1719H141.312ZM144.312 84.7812H87.2188V90.7812H144.312V84.7812ZM84.2188 87.7812V152.469H90.2188V87.7812H84.2188ZM87.2188 149.469H61.0625V155.469H87.2188V149.469ZM64.0625 152.469V87.7812H58.0625V152.469H64.0625ZM61.0625 84.7812H3.96875V90.7812H61.0625V84.7812ZM6.96875 87.7812V63.1719H0.96875V87.7812H6.96875ZM3.96875 66.1719H61.0625V60.1719H3.96875V66.1719ZM64.0625 63.1719V3.40625H58.0625V63.1719H64.0625ZM61.0625 6.40625H87.2188V0.40625H61.0625V6.40625ZM84.2188 3.40625V63.1719H90.2188V3.40625H84.2188Z" fill="#29292E"/>
</svg>
